{"title":"Anastasia 1997 DVDrip Duch Klam","uid":6848023,"size":1442440570,"categoryP":"video","categoryS":"movies","magnet":"?xt=urn:btih:0a03c2553984460cbbbade99afefc0447ada3a6e&amp;dn=Anastasia+1997+DVDrip+Duch+Klam&amp;tr=udp%3A%2F%2Ftracker.openbittorrent.com%3A80&amp;tr=udp%3A%2F%2Fopen.demonii.com%3A1337&amp;tr=udp%3A%2F%2Ftracker.coppersurfer.tk%3A6969&amp;tr=udp%3A%2F%2Fexodus.desync.com%3A6969","seeders":1,"leechers":1,"uploader":"Klambake","files":-1,"time":1322417682,"description":"Nederlands gesproken,\nDe enige overlevende van de Romanov familie, Anastasia, neemt contact op met Dimitri en Vladimir. Met hen gaat ze op zoek naar haar familie in Parijs, terwijl Rasputin achter haar hielen zit met het doel haar te vermoorden.\n\nDutch spoken,\nThe only surviving child of the Russian Royal Family hooks up with two con men while the undead Rasputin seeks her death. \n\n---------------------------------------------------------------\n-------------- @ ------- Dutch Friends ------- @ --------------\n---------------------------------------------------------------\n-- Bezoek ook eens mijn vrienden op: http://www.Film-Test.nl --\n----- voor mijn Nederlandse Sync. ondertitels ---- en meer ----\n------- http://www.Film-Test.nl ---- voor Films en meer -------\n---------------------------------------------------------------\n\nGeneral:\n\nComplete name                    : Anastasia\\Anastasia.avi\nFormat                           : AVI\nFormat/Info                      : Audio Video Interleave\nFile size                        : 1.34 GiB\nDuration                         : 1h 30mn\nOverall bit rate                 : 2 130 Kbps\n\nVideo:\n\nFormat                           : MPEG-4 Visual\nFormat profile                   : Simple@L3\nFormat settings, BVOP            : No\nFormat settings, QPel            : No\nFormat settings, GMC             : No warppoints\nFormat settings, Matrix          : Default (H.263)\nCodec ID                         : XVID\nCodec ID/Hint                    : XviD\nDuration                         : 1h 30mn\nBit rate                         : 1 927 Kbps\nWidth                            : 720 pixels\nHeight                           : 304 pixels\nDisplay aspect ratio             : 2.35:1\nFrame rate                       : 25.000 fps\nColor space                      : YUV\nChroma subsampling               : 4:2:0\nBit depth                        : 8 bits\nScan type                        : Progressive\nCompression mode                 : Lossy\nBits/(Pixel*Frame)               : 0.352\nStream size                      : 1.22 GiB (90%)\nWriting library                  : XviD 1.1.2 (UTC 2006-11-01)\n\nAudio:\n\nFormat                           : AC-3\nFormat/Info                      : Audio Coding 3\nFormat profile                   : Dolby Digital\nMode extension                   : CM (complete main)\nCodec ID                         : 2000\nDuration                         : 1h 30mn\nBit rate mode                    : Constant\nBit rate                         : 192 Kbps\nChannel(s)                       : 2 channels\nChannel positions                : Front: L R\nSampling rate                    : 48.0 KHz\nBit depth                        : 16 bits\nCompression mode                 : Lossy\nStream size                      : 124 MiB (9%)\nAlignment                        : Aligned on interleaves\nInterleave, duration             : 32 ms (0.80 video frame)\nInterleave, preload duration     : 160 ms\n\n","torrent":{"xt":"urn:btih:0a03c2553984460cbbbade99afefc0447ada3a6e","amp;dn":"Anastasia+1997+DVDrip+Duch+Klam","amp;tr":["udp%3A%2F%2Ftracker.openbittorrent.com%3A80","udp%3A%2F%2Fopen.demonii.com%3A1337","udp%3A%2F%2Ftracker.coppersurfer.tk%3A6969","udp%3A%2F%2Fexodus.desync.com%3A6969"],"infoHash":"0a03c2553984460cbbbade99afefc0447ada3a6e","infoHashBuffer":{"type":"Buffer","data":[10,3,194,85,57,132,70,12,187,186,222,153,175,239,192,68,122,218,58,110]},"announce":[],"urlList":[]}}